<svg width="572" height="575" viewBox="0 0 572 575" fill="none" xmlns="http://www.w3.org/2000/svg">
<path d="M432.513 296.075C507.478 296.075 568.6 355.206 571.642 429.29H572V575H293.031V429.29H293.389C296.431 355.206 357.549 296.076 432.513 296.075ZM278.969 393.927C278.969 493.679 197.958 574.544 98.0277 574.545H0V296.075H278.969V393.927ZM278.969 145.71H278.611C275.569 219.794 214.451 278.924 139.487 278.925C64.5217 278.925 3.3997 219.794 0.35751 145.71H0V0H278.969V145.71ZM572 278.925H293.031V181.073C293.031 81.3208 374.042 0.455893 473.972 0.455317H572V278.925Z" fill="white"/>
</svg>
