<svg width="32" height="32" viewBox="0 0 32 32" fill="none" xmlns="http://www.w3.org/2000/svg">
  <rect width="32" height="32" rx="6" ry="6" fill="black"/>
  <g transform="translate(5, 9) scale(0.34)">
    <path d="M43.0703 0C54.6455 4.18094e-05 64.0293 9.40209 64.0293 21C64.0293 32.5979 54.6455 42 43.0703 42C39.0119 42 35.2233 40.8437 32.0137 38.8428C28.8043 40.8433 25.016 42 20.958 42C9.383 41.9998 0 32.5978 0 21C3.04934e-05 9.40222 9.38302 0.000241792 20.958 0C25.0158 0 28.8044 1.15587 32.0137 3.15625C35.2232 1.1555 39.0121 0 43.0703 0ZM43.0703 0.741211C39.5444 0.741211 36.2305 1.64545 33.3457 3.23438C38.9037 7.17039 42.5351 13.6602 42.5352 21C42.5352 28.3398 38.9037 34.8296 33.3457 38.7656C36.2305 40.3546 39.5444 41.2588 43.0703 41.2588C54.2348 41.2587 63.2881 32.19 63.2881 21C63.2881 9.81005 54.2348 0.741253 43.0703 0.741211ZM32.0137 3.23438C31.2357 3.72692 30.4934 4.27057 29.7891 4.8584C29.8029 4.89727 29.8115 4.93879 29.8115 4.98242C29.8115 5.18709 29.6451 5.35254 29.4404 5.35254C29.3774 5.35247 29.3185 5.33639 29.2666 5.30859C28.8358 5.69273 28.4203 6.09362 28.0225 6.51172C28.0597 6.56951 28.082 6.63801 28.082 6.71191C28.082 6.91639 27.9163 7.08177 27.7119 7.08203C27.6492 7.08203 27.5898 7.06655 27.5381 7.03906C27.1194 7.51012 26.7203 7.99919 26.3447 8.50684C26.3248 8.61777 26.2562 8.70959 26.1611 8.7627C25.5214 9.65503 24.95 10.5995 24.4541 11.5889C24.5559 11.6549 24.623 11.77 24.623 11.9004C24.6229 12.1048 24.4573 12.2703 24.2529 12.2705C24.2121 12.2705 24.1735 12.2612 24.1367 12.249C23.4857 13.6699 22.9884 15.1759 22.666 16.7461C22.7997 16.8019 22.8934 16.934 22.8936 17.0879C22.8936 17.2892 22.7332 17.4517 22.5332 17.457C22.4762 17.7932 22.4276 18.1322 22.3867 18.4736C22.429 18.4568 22.4752 18.4473 22.5234 18.4473C22.7279 18.4474 22.8934 18.6129 22.8936 18.8174C22.8936 19.022 22.728 19.1884 22.5234 19.1885C22.4475 19.1885 22.3781 19.1632 22.3193 19.124C22.2848 19.5144 22.258 19.9075 22.2451 20.3037C22.313 20.2262 22.4122 20.1768 22.5234 20.1768C22.7279 20.1769 22.8934 20.3424 22.8936 20.5469C22.8936 20.7515 22.728 20.9178 22.5234 20.918C22.4081 20.918 22.3062 20.8639 22.2383 20.7812C22.2375 20.8541 22.2354 20.927 22.2354 21C22.2354 21.3402 22.2448 21.6784 22.2607 22.0146C22.3278 21.9474 22.4209 21.9062 22.5234 21.9062C22.728 21.9064 22.8935 22.0718 22.8936 22.2764C22.8936 22.481 22.728 22.6473 22.5234 22.6475C22.4366 22.6475 22.3571 22.6165 22.2939 22.5664C22.3209 22.9327 22.3569 23.2964 22.4023 23.6572C22.4404 23.6441 22.4809 23.6357 22.5234 23.6357C22.728 23.6359 22.8935 23.8013 22.8936 24.0059C22.8936 24.2105 22.728 24.3768 22.5234 24.377C22.5173 24.377 22.511 24.3753 22.5049 24.375C22.5611 24.7237 22.627 25.0693 22.7002 25.4121C22.815 25.4751 22.8936 25.5952 22.8936 25.7354C22.8935 25.8163 22.8664 25.8902 22.8223 25.9512C24.1188 31.3257 27.4778 35.8928 32.0137 38.7646C37.1781 35.4952 40.8178 30.0288 41.624 23.6748C41.5907 23.9094 41.5537 24.143 41.5127 24.375C41.324 24.3578 41.1758 24.1991 41.1758 24.0059C41.1758 23.8012 41.3422 23.6357 41.5469 23.6357C41.5743 23.6358 41.6012 23.6379 41.627 23.6436C41.6704 23.2968 41.7051 22.9475 41.7314 22.5957C41.6769 22.6274 41.6145 22.6474 41.5469 22.6475C41.3422 22.6475 41.1758 22.481 41.1758 22.2764C41.1759 22.0718 41.3423 21.9062 41.5469 21.9062C41.6301 21.9063 41.7057 21.9351 41.7676 21.9814C41.7825 21.6561 41.7939 21.329 41.7939 21C41.7939 20.941 41.7905 20.8821 41.79 20.8232C41.7248 20.8808 41.6407 20.9179 41.5469 20.918C41.3422 20.918 41.1758 20.7515 41.1758 20.5469C41.1759 20.3423 41.3423 20.1768 41.5469 20.1768C41.6354 20.1768 41.7166 20.2079 41.7803 20.2598C41.7674 19.8867 41.742 19.5163 41.71 19.1484C41.6606 19.1729 41.6057 19.1884 41.5469 19.1885C41.3422 19.1885 41.1758 19.0221 41.1758 18.8174C41.1759 18.6129 41.3423 18.4473 41.5469 18.4473C41.5786 18.4473 41.6093 18.4515 41.6387 18.459C41.598 18.1212 41.5506 17.7858 41.4941 17.4531C41.3145 17.4275 41.1758 17.2746 41.1758 17.0879C41.1759 16.9491 41.2531 16.829 41.3662 16.7656C41.0447 15.1925 40.5467 13.6842 39.8955 12.2607C39.8702 12.2662 39.8443 12.2705 39.8174 12.2705C39.6128 12.2705 39.4465 12.1049 39.4463 11.9004C39.4463 11.7837 39.5006 11.6792 39.585 11.6113C39.0709 10.5826 38.4749 9.6025 37.8057 8.67871C37.7917 8.66209 37.7785 8.64491 37.7676 8.62598C37.3698 8.08049 36.9472 7.5546 36.5 7.05078C36.4561 7.06918 36.409 7.08203 36.3584 7.08203C36.1538 7.08199 35.9883 6.91652 35.9883 6.71191C35.9883 6.64909 36.0037 6.58992 36.0312 6.53809C35.6294 6.11429 35.2091 5.70839 34.7734 5.31934C34.7286 5.33857 34.6808 5.35254 34.6289 5.35254C34.4243 5.35245 34.2588 5.18704 34.2588 4.98242C34.2588 4.94871 34.2621 4.9158 34.2705 4.88477C33.5567 4.28666 32.8035 3.73435 32.0137 3.23438ZM31.1699 37.4707C31.3745 37.4707 31.5408 37.6363 31.541 37.8408C31.541 37.9505 31.4927 38.0493 31.417 38.1172C31.2176 37.9826 31.0207 37.8443 30.8262 37.7031C30.8809 37.5669 31.0142 37.4708 31.1699 37.4707ZM32.8994 37.4707C33.0378 37.4707 33.159 37.5468 33.2227 37.6592C33.0244 37.8042 32.8226 37.9458 32.6191 38.084C32.5628 38.019 32.5293 37.9336 32.5293 37.8408C32.5295 37.6364 32.695 37.4708 32.8994 37.4707ZM29.4404 35.7412C29.645 35.7412 29.8113 35.9069 29.8115 36.1113C29.8115 36.316 29.6451 36.4824 29.4404 36.4824C29.236 36.4822 29.0703 36.3159 29.0703 36.1113C29.0706 35.907 29.2361 35.7414 29.4404 35.7412ZM31.1699 35.7412C31.3744 35.7412 31.5408 35.9069 31.541 36.1113C31.541 36.316 31.3746 36.4824 31.1699 36.4824C30.9654 36.4822 30.7998 36.3159 30.7998 36.1113C30.8 35.907 30.9656 35.7414 31.1699 35.7412ZM32.8994 35.7412C33.1039 35.7412 33.2703 35.9069 33.2705 36.1113C33.2705 36.316 33.1041 36.4824 32.8994 36.4824C32.6949 36.4823 32.5293 36.3159 32.5293 36.1113C32.5295 35.9069 32.695 35.7413 32.8994 35.7412ZM34.6289 35.7412C34.8334 35.7412 34.9998 35.9069 35 36.1113C35 36.1481 34.9943 36.1843 34.9844 36.2178C34.8889 36.3049 34.7924 36.3912 34.6953 36.4766C34.6739 36.4804 34.6515 36.4824 34.6289 36.4824C34.4243 36.4823 34.2588 36.3159 34.2588 36.1113C34.259 35.9069 34.4245 35.7413 34.6289 35.7412ZM27.7119 34.0117C27.9164 34.012 28.082 34.1783 28.082 34.3828C28.0818 34.5871 27.9162 34.7527 27.7119 34.7529C27.6155 34.7529 27.5269 34.7166 27.4609 34.6562C27.4441 34.6373 27.4279 34.6176 27.4111 34.5986C27.3673 34.5378 27.3409 34.4635 27.3408 34.3828C27.3408 34.1781 27.5072 34.0117 27.7119 34.0117ZM29.4404 34.0117C29.6451 34.0117 29.8115 34.1781 29.8115 34.3828C29.8113 34.5873 29.645 34.7529 29.4404 34.7529C29.2361 34.7527 29.0706 34.5871 29.0703 34.3828C29.0703 34.1783 29.236 34.0119 29.4404 34.0117ZM31.1699 34.0117C31.3746 34.0117 31.541 34.1781 31.541 34.3828C31.5408 34.5873 31.3744 34.7529 31.1699 34.7529C30.9656 34.7528 30.8 34.5872 30.7998 34.3828C30.7998 34.1783 30.9654 34.0119 31.1699 34.0117ZM32.8994 34.0117C33.1041 34.0117 33.2705 34.1781 33.2705 34.3828C33.2703 34.5873 33.1039 34.7529 32.8994 34.7529C32.695 34.7528 32.5295 34.5872 32.5293 34.3828C32.5293 34.1782 32.6949 34.0119 32.8994 34.0117ZM34.6289 34.0117C34.8336 34.0117 35 34.1781 35 34.3828C34.9998 34.5873 34.8334 34.7529 34.6289 34.7529C34.4245 34.7528 34.259 34.5872 34.2588 34.3828C34.2588 34.1782 34.4243 34.0118 34.6289 34.0117ZM36.3584 34.0117C36.5631 34.0117 36.7295 34.1781 36.7295 34.3828C36.7295 34.398 36.7284 34.413 36.7266 34.4277C36.6354 34.5332 36.5425 34.6376 36.4492 34.7412C36.4201 34.7485 36.3898 34.7529 36.3584 34.7529C36.1539 34.7529 35.9885 34.5872 35.9883 34.3828C35.9883 34.1782 36.1538 34.0118 36.3584 34.0117ZM27.7119 32.2822C27.9164 32.2825 28.082 32.4488 28.082 32.6533C28.0818 32.8577 27.9162 33.0232 27.7119 33.0234C27.5074 33.0234 27.341 32.8578 27.3408 32.6533C27.3408 32.4487 27.5072 32.2822 27.7119 32.2822ZM29.4404 32.2822C29.6451 32.2822 29.8115 32.4487 29.8115 32.6533C29.8113 32.8578 29.645 33.0234 29.4404 33.0234C29.2361 33.0232 29.0705 32.8577 29.0703 32.6533C29.0703 32.4488 29.236 32.2825 29.4404 32.2822ZM31.1699 32.2822C31.3746 32.2822 31.541 32.4487 31.541 32.6533C31.5408 32.8578 31.3745 33.0234 31.1699 33.0234C30.9655 33.0233 30.8 32.8577 30.7998 32.6533C30.7998 32.4488 30.9654 32.2824 31.1699 32.2822ZM32.8994 32.2822C33.1041 32.2822 33.2705 32.4487 33.2705 32.6533C33.2703 32.8578 33.104 33.0234 32.8994 33.0234C32.695 33.0233 32.5295 32.8577 32.5293 32.6533C32.5293 32.4487 32.6949 32.2824 32.8994 32.2822ZM34.6289 32.2822C34.8336 32.2822 35 32.4487 35 32.6533C34.9998 32.8578 34.8335 33.0234 34.6289 33.0234C34.4244 33.0233 34.259 32.8578 34.2588 32.6533C34.2588 32.4487 34.4243 32.2823 34.6289 32.2822ZM36.3584 32.2822C36.5631 32.2822 36.7295 32.4487 36.7295 32.6533C36.7293 32.8578 36.5629 33.0234 36.3584 33.0234C36.1539 33.0234 35.9885 32.8578 35.9883 32.6533C35.9883 32.4487 36.1538 32.2823 36.3584 32.2822ZM25.9824 32.2822C26.1869 32.2824 26.3525 32.4488 26.3525 32.6533C26.3524 32.8064 26.2595 32.9378 26.127 32.9941C25.9854 32.7984 25.8468 32.6002 25.7119 32.3994C25.7795 32.3276 25.876 32.2822 25.9824 32.2822ZM38.0879 32.2822C38.1694 32.2822 38.2445 32.309 38.3057 32.3535C38.1685 32.5589 38.0279 32.7618 37.8838 32.9619C37.7837 32.8956 37.7179 32.7823 37.7178 32.6533C37.7178 32.4487 37.8832 32.2822 38.0879 32.2822ZM25.9824 30.5527C26.1869 30.5529 26.3525 30.7193 26.3525 30.9238C26.3524 31.1282 26.1868 31.2937 25.9824 31.2939C25.7778 31.2939 25.6115 31.1284 25.6113 30.9238C25.6113 30.7192 25.7778 30.5527 25.9824 30.5527ZM27.7119 30.5527C27.9164 30.553 28.082 30.7193 28.082 30.9238C28.0819 31.1282 27.9163 31.2937 27.7119 31.2939C27.5073 31.2939 27.341 31.1284 27.3408 30.9238C27.3408 30.7192 27.5072 30.5527 27.7119 30.5527ZM29.4404 30.5527C29.6451 30.5527 29.8115 30.7192 29.8115 30.9238C29.8114 31.1284 29.645 31.2939 29.4404 31.2939C29.236 31.2937 29.0705 31.1282 29.0703 30.9238C29.0703 30.7193 29.236 30.553 29.4404 30.5527ZM31.1699 30.5527C31.3746 30.5527 31.541 30.7192 31.541 30.9238C31.5409 31.1284 31.3745 31.2939 31.1699 31.2939C30.9655 31.2938 30.8 31.1283 30.7998 30.9238C30.7998 30.7193 30.9654 30.5529 31.1699 30.5527ZM32.8994 30.5527C33.1041 30.5527 33.2705 30.7192 33.2705 30.9238C33.2704 31.1284 33.104 31.2939 32.8994 31.2939C32.695 31.2938 32.5294 31.1283 32.5293 30.9238C32.5293 30.7192 32.6949 30.5529 32.8994 30.5527ZM34.6289 30.5527C34.8336 30.5527 35 30.7192 35 30.9238C34.9999 31.1284 34.8335 31.2939 34.6289 31.2939C34.4244 31.2939 34.2589 31.1283 34.2588 30.9238C34.2588 30.7192 34.4243 30.5528 34.6289 30.5527ZM36.3584 30.5527C36.5631 30.5527 36.7295 30.7192 36.7295 30.9238C36.7293 31.1284 36.563 31.2939 36.3584 31.2939C36.1539 31.2939 35.9884 31.1283 35.9883 30.9238C35.9883 30.7192 36.1538 30.5528 36.3584 30.5527ZM38.0879 30.5527C38.2926 30.5527 38.458 30.7192 38.458 30.9238C38.4579 31.1284 38.2925 31.2939 38.0879 31.2939C37.8833 31.2939 37.7179 31.1284 37.7178 30.9238C37.7178 30.7192 37.8832 30.5527 38.0879 30.5527ZM24.2529 28.8232C24.4575 28.8234 24.623 28.9898 24.623 29.1943C24.6229 29.3988 24.4574 29.5643 24.2529 29.5645C24.1969 29.5645 24.1433 29.5525 24.0957 29.5303C24.0279 29.3842 23.962 29.2367 23.8975 29.0889C23.9428 28.9355 24.0849 28.8232 24.2529 28.8232ZM25.9824 28.8232C26.1869 28.8235 26.3525 28.9898 26.3525 29.1943C26.3524 29.3988 26.1868 29.5642 25.9824 29.5645C25.7778 29.5645 25.6114 29.3989 25.6113 29.1943C25.6113 28.9897 25.7778 28.8232 25.9824 28.8232ZM27.7119 28.8232C27.9164 28.8235 28.082 28.9898 28.082 29.1943C28.0819 29.3988 27.9163 29.5642 27.7119 29.5645C27.5073 29.5645 27.3409 29.3989 27.3408 29.1943C27.3408 28.9897 27.5072 28.8232 27.7119 28.8232ZM29.4404 28.8232C29.6451 28.8232 29.8115 28.9897 29.8115 29.1943C29.8114 29.3989 29.645 29.5645 29.4404 29.5645C29.236 29.5642 29.0704 29.3988 29.0703 29.1943C29.0703 28.9898 29.236 28.8235 29.4404 28.8232ZM31.1699 28.8232C31.3746 28.8232 31.541 28.9897 31.541 29.1943C31.5409 29.3989 31.3745 29.5645 31.1699 29.5645C30.9655 29.5643 30.7999 29.3988 30.7998 29.1943C30.7998 28.9898 30.9654 28.8234 31.1699 28.8232ZM32.8994 28.8232C33.1041 28.8232 33.2705 28.9897 33.2705 29.1943C33.2704 29.3989 33.104 29.5645 32.8994 29.5645C32.6949 29.5643 32.5294 29.3988 32.5293 29.1943C32.5293 28.9897 32.6949 28.8234 32.8994 28.8232ZM34.6289 28.8232C34.8336 28.8232 35 28.9897 35 29.1943C34.9999 29.3989 34.8335 29.5645 34.6289 29.5645C34.4244 29.5644 34.2589 29.3989 34.2588 29.1943C34.2588 28.9897 34.4243 28.8233 34.6289 28.8232ZM36.3584 28.8232C36.5631 28.8232 36.7295 28.9897 36.7295 29.1943C36.7294 29.3989 36.563 29.5645 36.3584 29.5645C36.1538 29.5644 35.9884 29.3989 35.9883 29.1943C35.9883 28.9897 36.1538 28.8233 36.3584 28.8232ZM38.0879 28.8232C38.2926 28.8232 38.458 28.9897 38.458 29.1943C38.4579 29.3989 38.2925 29.5645 38.0879 29.5645C37.8833 29.5645 37.7179 29.3989 37.7178 29.1943C37.7178 28.9897 37.8832 28.8232 38.0879 28.8232ZM39.8174 28.8232C39.9491 28.8233 40.0652 28.8925 40.1309 28.9961C40.0494 29.1854 39.9648 29.3732 39.8779 29.5596C39.8582 29.5628 39.838 29.5644 39.8174 29.5645C39.6128 29.5645 39.4464 29.3989 39.4463 29.1943C39.4463 28.9897 39.6127 28.8232 39.8174 28.8232ZM24.2529 27.0938C24.4575 27.0939 24.623 27.2603 24.623 27.4648C24.623 27.6694 24.4574 27.8348 24.2529 27.835C24.0483 27.835 23.8819 27.6695 23.8818 27.4648C23.8818 27.2602 24.0483 27.0938 24.2529 27.0938ZM25.9824 27.0938C26.1869 27.094 26.3525 27.2603 26.3525 27.4648C26.3525 27.6693 26.1869 27.8347 25.9824 27.835C25.7778 27.835 25.6114 27.6695 25.6113 27.4648C25.6113 27.2602 25.7778 27.0938 25.9824 27.0938ZM27.7119 27.0938C27.9164 27.094 28.082 27.2603 28.082 27.4648C28.082 27.6693 27.9163 27.8347 27.7119 27.835C27.5073 27.835 27.3409 27.6695 27.3408 27.4648C27.3408 27.2602 27.5072 27.0938 27.7119 27.0938ZM29.4404 27.0938C29.6451 27.0938 29.8115 27.2602 29.8115 27.4648C29.8115 27.6695 29.6451 27.835 29.4404 27.835C29.236 27.8347 29.0704 27.6693 29.0703 27.4648C29.0703 27.2603 29.236 27.094 29.4404 27.0938ZM31.1699 27.0938C31.3746 27.0938 31.541 27.2602 31.541 27.4648C31.541 27.6695 31.3746 27.835 31.1699 27.835C30.9654 27.8348 30.7999 27.6694 30.7998 27.4648C30.7998 27.2603 30.9654 27.0939 31.1699 27.0938ZM32.8994 27.0938C33.1041 27.0938 33.2705 27.2602 33.2705 27.4648C33.2704 27.6695 33.104 27.835 32.8994 27.835C32.6949 27.8348 32.5294 27.6694 32.5293 27.4648C32.5293 27.2603 32.6949 27.0939 32.8994 27.0938ZM34.6289 27.0938C34.8336 27.0938 35 27.2602 35 27.4648C34.9999 27.6695 34.8335 27.835 34.6289 27.835C34.4244 27.8349 34.2589 27.6694 34.2588 27.4648C34.2588 27.2602 34.4243 27.0938 34.6289 27.0938ZM36.3584 27.0938C36.5631 27.0938 36.7295 27.2602 36.7295 27.4648C36.7294 27.6695 36.563 27.835 36.3584 27.835C36.1538 27.8349 35.9883 27.6694 35.9883 27.4648C35.9883 27.2602 36.1538 27.0938 36.3584 27.0938ZM38.0879 27.0938C38.2926 27.0938 38.458 27.2602 38.458 27.4648C38.4579 27.6695 38.2925 27.835 38.0879 27.835C37.8833 27.835 37.7178 27.6695 37.7178 27.4648C37.7178 27.2602 37.8832 27.0938 38.0879 27.0938ZM39.8174 27.0938C40.022 27.0938 40.1875 27.2602 40.1875 27.4648C40.1874 27.6694 40.022 27.8349 39.8174 27.835C39.6128 27.835 39.4464 27.6695 39.4463 27.4648C39.4463 27.2602 39.6127 27.0938 39.8174 27.0938ZM24.2529 25.3643C24.4575 25.3644 24.623 25.5308 24.623 25.7354C24.623 25.9399 24.4574 26.1053 24.2529 26.1055C24.0483 26.1055 23.8819 25.94 23.8818 25.7354C23.8818 25.5307 24.0483 25.3643 24.2529 25.3643ZM25.9824 25.3643C26.1869 25.3645 26.3525 25.5308 26.3525 25.7354C26.3525 25.9399 26.1869 26.1053 25.9824 26.1055C25.7778 26.1055 25.6113 25.94 25.6113 25.7354C25.6113 25.5307 25.7778 25.3643 25.9824 25.3643ZM27.7119 25.3643C27.9164 25.3645 28.082 25.5308 28.082 25.7354C28.082 25.9398 27.9164 26.1052 27.7119 26.1055C27.5073 26.1055 27.3408 25.94 27.3408 25.7354C27.3408 25.5307 27.5072 25.3643 27.7119 25.3643ZM29.4404 25.3643C29.6451 25.3643 29.8115 25.5307 29.8115 25.7354C29.8115 25.94 29.6451 26.1055 29.4404 26.1055C29.236 26.1052 29.0703 25.9399 29.0703 25.7354C29.0703 25.5308 29.236 25.3645 29.4404 25.3643ZM31.1699 25.3643C31.3746 25.3643 31.541 25.5307 31.541 25.7354C31.541 25.94 31.3746 26.1055 31.1699 26.1055C30.9654 26.1053 30.7998 25.9399 30.7998 25.7354C30.7998 25.5308 30.9654 25.3644 31.1699 25.3643ZM32.8994 25.3643C33.1041 25.3643 33.2705 25.5307 33.2705 25.7354C33.2705 25.94 33.1041 26.1055 32.8994 26.1055C32.6949 26.1053 32.5293 25.9399 32.5293 25.7354C32.5293 25.5308 32.6949 25.3644 32.8994 25.3643ZM34.6289 25.3643C34.8336 25.3643 35 25.5307 35 25.7354C35 25.94 34.8336 26.1055 34.6289 26.1055C34.4243 26.1054 34.2588 25.94 34.2588 25.7354C34.2588 25.5307 34.4243 25.3643 34.6289 25.3643ZM36.3584 25.3643C36.5631 25.3643 36.7295 25.5307 36.7295 25.7354C36.7295 25.94 36.5631 26.1055 36.3584 26.1055C36.1538 26.1054 35.9883 25.94 35.9883 25.7354C35.9883 25.5307 36.1538 25.3643 36.3584 25.3643ZM38.0879 25.3643C38.2926 25.3643 38.458 25.5307 38.458 25.7354C38.458 25.94 38.2925 26.1055 38.0879 26.1055C37.8832 26.1055 37.7178 25.94 37.7178 25.7354C37.7178 25.5307 37.8832 25.3643 38.0879 25.3643ZM39.8174 25.3643C40.022 25.3643 40.1875 25.5307 40.1875 25.7354C40.1875 25.94 40.022 26.1054 39.8174 26.1055C39.6127 26.1055 39.4463 25.94 39.4463 25.7354C39.4463 25.5307 39.6127 25.3643 39.8174 25.3643ZM41.1953 25.8545C41.1827 25.8172 41.1758 25.7769 41.1758 25.7354C41.1758 25.6308 41.2194 25.5361 41.2891 25.4688C41.2591 25.5976 41.2276 25.7266 41.1953 25.8545ZM24.2529 23.6357C24.4574 23.6359 24.623 23.8013 24.623 24.0059C24.623 24.2104 24.4575 24.3768 24.2529 24.377C24.0483 24.377 23.8818 24.2105 23.8818 24.0059C23.8819 23.8012 24.0483 23.6357 24.2529 23.6357ZM25.9824 23.6357C26.1869 23.636 26.3525 23.8013 26.3525 24.0059C26.3525 24.2104 26.1869 24.3767 25.9824 24.377C25.7778 24.377 25.6113 24.2105 25.6113 24.0059C25.6114 23.8012 25.7778 23.6357 25.9824 23.6357ZM27.7119 23.6357C27.9163 23.636 28.082 23.8014 28.082 24.0059C28.082 24.2104 27.9164 24.3767 27.7119 24.377C27.5072 24.377 27.3408 24.2105 27.3408 24.0059C27.3409 23.8012 27.5073 23.6357 27.7119 23.6357ZM29.4404 23.6357C29.6451 23.6357 29.8115 23.8012 29.8115 24.0059C29.8115 24.2105 29.6451 24.377 29.4404 24.377C29.236 24.3767 29.0703 24.2104 29.0703 24.0059C29.0703 23.8014 29.236 23.636 29.4404 23.6357ZM31.1699 23.6357C31.3746 23.6357 31.541 23.8012 31.541 24.0059C31.541 24.2105 31.3746 24.377 31.1699 24.377C30.9654 24.3768 30.7998 24.2104 30.7998 24.0059C30.7998 23.8013 30.9654 23.6359 31.1699 23.6357ZM32.8994 23.6357C33.1041 23.6357 33.2705 23.8012 33.2705 24.0059C33.2705 24.2105 33.1041 24.377 32.8994 24.377C32.6949 24.3768 32.5293 24.2104 32.5293 24.0059C32.5293 23.8013 32.6949 23.6359 32.8994 23.6357ZM34.6289 23.6357C34.8336 23.6357 35 23.8012 35 24.0059C35 24.2105 34.8336 24.377 34.6289 24.377C34.4243 24.3769 34.2588 24.2105 34.2588 24.0059C34.2588 23.8013 34.4243 23.6358 34.6289 23.6357ZM36.3584 23.6357C36.563 23.6357 36.7295 23.8012 36.7295 24.0059C36.7295 24.2105 36.5631 24.377 36.3584 24.377C36.1538 24.3769 35.9883 24.2105 35.9883 24.0059C35.9883 23.8012 36.1538 23.6358 36.3584 23.6357ZM38.0879 23.6357C38.2925 23.6357 38.458 23.8012 38.458 24.0059C38.458 24.2105 38.2926 24.377 38.0879 24.377C37.8832 24.377 37.7178 24.2105 37.7178 24.0059C37.7178 23.8012 37.8832 23.6357 38.0879 23.6357ZM39.8174 23.6357C40.022 23.6358 40.1875 23.8012 40.1875 24.0059C40.1875 24.2105 40.022 24.3769 39.8174 24.377C39.6127 24.377 39.4463 24.2105 39.4463 24.0059C39.4463 23.8012 39.6127 23.6357 39.8174 23.6357ZM24.2529 21.9062C24.4574 21.9064 24.623 22.0719 24.623 22.2764C24.623 22.4809 24.4575 22.6473 24.2529 22.6475C24.0483 22.6475 23.8818 22.481 23.8818 22.2764C23.8819 22.0718 24.0483 21.9062 24.2529 21.9062ZM25.9824 21.9062C26.1869 21.9065 26.3525 22.0719 26.3525 22.2764C26.3525 22.4809 26.1869 22.6472 25.9824 22.6475C25.7778 22.6475 25.6113 22.481 25.6113 22.2764C25.6114 22.0718 25.7778 21.9062 25.9824 21.9062ZM27.7119 21.9062C27.9163 21.9065 28.082 22.0719 28.082 22.2764C28.082 22.4809 27.9164 22.6472 27.7119 22.6475C27.5072 22.6475 27.3408 22.481 27.3408 22.2764C27.3409 22.0718 27.5073 21.9062 27.7119 21.9062ZM29.4404 21.9062C29.6451 21.9062 29.8114 22.0718 29.8115 22.2764C29.8115 22.481 29.6451 22.6475 29.4404 22.6475C29.236 22.6472 29.0703 22.4809 29.0703 22.2764C29.0704 22.0719 29.236 21.9065 29.4404 21.9062ZM31.1699 21.9062C31.3745 21.9062 31.5409 22.0718 31.541 22.2764C31.541 22.481 31.3746 22.6475 31.1699 22.6475C30.9654 22.6473 30.7998 22.4809 30.7998 22.2764C30.7999 22.0719 30.9655 21.9064 31.1699 21.9062ZM32.8994 21.9062C33.104 21.9062 33.2704 22.0718 33.2705 22.2764C33.2705 22.481 33.1041 22.6475 32.8994 22.6475C32.6949 22.6473 32.5293 22.481 32.5293 22.2764C32.5294 22.0718 32.6949 21.9064 32.8994 21.9062ZM34.6289 21.9062C34.8335 21.9062 34.9999 22.0718 35 22.2764C35 22.481 34.8336 22.6475 34.6289 22.6475C34.4243 22.6474 34.2588 22.481 34.2588 22.2764C34.2589 22.0718 34.4244 21.9063 34.6289 21.9062ZM36.3584 21.9062C36.563 21.9062 36.7294 22.0718 36.7295 22.2764C36.7295 22.481 36.5631 22.6475 36.3584 22.6475C36.1538 22.6474 35.9883 22.481 35.9883 22.2764C35.9884 22.0718 36.1538 21.9063 36.3584 21.9062ZM38.0879 21.9062C38.2925 21.9063 38.4579 22.0718 38.458 22.2764C38.458 22.481 38.2926 22.6475 38.0879 22.6475C37.8832 22.6475 37.7178 22.481 37.7178 22.2764C37.7178 22.0718 37.8833 21.9062 38.0879 21.9062ZM39.8174 21.9062C40.022 21.9063 40.1874 22.0718 40.1875 22.2764C40.1875 22.481 40.022 22.6474 39.8174 22.6475C39.6127 22.6475 39.4463 22.481 39.4463 22.2764C39.4464 22.0718 39.6128 21.9062 39.8174 21.9062ZM24.2529 20.1768C24.4574 20.1769 24.6229 20.3424 24.623 20.5469C24.623 20.7514 24.4575 20.9178 24.2529 20.918C24.0483 20.918 23.8818 20.7515 23.8818 20.5469C23.882 20.3423 24.0483 20.1768 24.2529 20.1768ZM25.9824 20.1768C26.1868 20.177 26.3524 20.3424 26.3525 20.5469C26.3525 20.7514 26.1869 20.9178 25.9824 20.918C25.7778 20.918 25.6113 20.7515 25.6113 20.5469C25.6115 20.3423 25.7778 20.1768 25.9824 20.1768ZM27.7119 20.1768C27.9163 20.177 28.0819 20.3425 28.082 20.5469C28.082 20.7514 27.9164 20.9177 27.7119 20.918C27.5072 20.918 27.3408 20.7515 27.3408 20.5469C27.3409 20.3423 27.5073 20.1768 27.7119 20.1768ZM29.4404 20.1768C29.645 20.1768 29.8114 20.3423 29.8115 20.5469C29.8115 20.7515 29.6451 20.918 29.4404 20.918C29.236 20.9177 29.0703 20.7514 29.0703 20.5469C29.0704 20.3424 29.236 20.177 29.4404 20.1768ZM31.1699 20.1768C31.3745 20.1768 31.5409 20.3423 31.541 20.5469C31.541 20.7515 31.3746 20.918 31.1699 20.918C30.9654 20.9178 30.7998 20.7514 30.7998 20.5469C30.7999 20.3424 30.9655 20.1769 31.1699 20.1768ZM32.8994 20.1768C33.104 20.1768 33.2704 20.3423 33.2705 20.5469C33.2705 20.7515 33.1041 20.918 32.8994 20.918C32.6949 20.9178 32.5293 20.7515 32.5293 20.5469C32.5294 20.3424 32.6949 20.1769 32.8994 20.1768ZM34.6289 20.1768C34.8335 20.1768 34.9999 20.3423 35 20.5469C35 20.7515 34.8336 20.918 34.6289 20.918C34.4243 20.9179 34.2588 20.7515 34.2588 20.5469C34.2589 20.3424 34.4244 20.1768 34.6289 20.1768ZM36.3584 20.1768C36.563 20.1768 36.7294 20.3423 36.7295 20.5469C36.7295 20.7515 36.5631 20.918 36.3584 20.918C36.1538 20.9179 35.9883 20.7515 35.9883 20.5469C35.9884 20.3423 36.1538 20.1768 36.3584 20.1768ZM38.0879 20.1768C38.2925 20.1768 38.4579 20.3423 38.458 20.5469C38.458 20.7515 38.2926 20.918 38.0879 20.918C37.8832 20.918 37.7178 20.7515 37.7178 20.5469C37.7179 20.3423 37.8833 20.1768 38.0879 20.1768ZM39.8174 20.1768C40.0219 20.1768 40.1874 20.3423 40.1875 20.5469C40.1875 20.7515 40.022 20.9179 39.8174 20.918C39.6127 20.918 39.4463 20.7515 39.4463 20.5469C39.4464 20.3423 39.6128 20.1768 39.8174 20.1768ZM24.2529 18.4473C24.4574 18.4474 24.6229 18.613 24.623 18.8174C24.623 19.0219 24.4575 19.1883 24.2529 19.1885C24.0483 19.1885 23.8818 19.0221 23.8818 18.8174C23.882 18.6129 24.0484 18.4473 24.2529 18.4473ZM25.9824 18.4473C26.1868 18.4475 26.3524 18.613 26.3525 18.8174C26.3525 19.0219 26.1869 19.1883 25.9824 19.1885C25.7778 19.1885 25.6113 19.0221 25.6113 18.8174C25.6115 18.6129 25.7779 18.4473 25.9824 18.4473ZM27.7119 18.4473C27.9163 18.4475 28.0819 18.613 28.082 18.8174C28.082 19.0219 27.9164 19.1882 27.7119 19.1885C27.5072 19.1885 27.3408 19.0221 27.3408 18.8174C27.341 18.6129 27.5073 18.4473 27.7119 18.4473ZM29.4404 18.4473C29.645 18.4473 29.8114 18.6129 29.8115 18.8174C29.8115 19.0221 29.6451 19.1885 29.4404 19.1885C29.236 19.1883 29.0703 19.0219 29.0703 18.8174C29.0705 18.613 29.2361 18.4475 29.4404 18.4473ZM31.1699 18.4473C31.3745 18.4473 31.5408 18.6129 31.541 18.8174C31.541 19.0221 31.3746 19.1885 31.1699 19.1885C30.9654 19.1883 30.7998 19.0219 30.7998 18.8174C30.8 18.613 30.9655 18.4474 31.1699 18.4473ZM32.8994 18.4473C33.104 18.4473 33.2703 18.6129 33.2705 18.8174C33.2705 19.0221 33.1041 19.1885 32.8994 19.1885C32.6949 19.1883 32.5293 19.022 32.5293 18.8174C32.5295 18.6129 32.695 18.4474 32.8994 18.4473ZM34.6289 18.4473C34.8335 18.4473 34.9998 18.6129 35 18.8174C35 19.0221 34.8336 19.1885 34.6289 19.1885C34.4243 19.1884 34.2588 19.022 34.2588 18.8174C34.259 18.6129 34.4244 18.4474 34.6289 18.4473ZM36.3584 18.4473C36.563 18.4473 36.7293 18.6129 36.7295 18.8174C36.7295 19.0221 36.5631 19.1885 36.3584 19.1885C36.1538 19.1884 35.9883 19.022 35.9883 18.8174C35.9884 18.6129 36.1539 18.4473 36.3584 18.4473ZM38.0879 18.4473C38.2925 18.4473 38.4578 18.6129 38.458 18.8174C38.458 19.0221 38.2926 19.1885 38.0879 19.1885C37.8832 19.1885 37.7178 19.0221 37.7178 18.8174C37.7179 18.6129 37.8833 18.4473 38.0879 18.4473ZM39.8174 18.4473C40.0219 18.4473 40.1873 18.6129 40.1875 18.8174C40.1875 19.022 40.022 19.1884 39.8174 19.1885C39.6127 19.1885 39.4463 19.0221 39.4463 18.8174C39.4465 18.6129 39.6128 18.4473 39.8174 18.4473ZM24.2529 16.7178C24.4573 16.7179 24.6228 16.8835 24.623 17.0879C24.623 17.2925 24.4575 17.4588 24.2529 17.459C24.0483 17.459 23.8818 17.2926 23.8818 17.0879C23.882 16.8834 24.0484 16.7178 24.2529 16.7178ZM25.9824 16.7178C26.1868 16.718 26.3523 16.8835 26.3525 17.0879C26.3525 17.2924 26.1869 17.4588 25.9824 17.459C25.7778 17.459 25.6113 17.2926 25.6113 17.0879C25.6115 16.8834 25.7779 16.7178 25.9824 16.7178ZM27.7119 16.7178C27.9162 16.718 28.0818 16.8836 28.082 17.0879C28.082 17.2924 27.9164 17.4587 27.7119 17.459C27.5072 17.459 27.3408 17.2926 27.3408 17.0879C27.341 16.8834 27.5074 16.7178 27.7119 16.7178ZM29.4404 16.7178C29.645 16.7178 29.8113 16.8834 29.8115 17.0879C29.8115 17.2926 29.6451 17.459 29.4404 17.459C29.236 17.4588 29.0703 17.2924 29.0703 17.0879C29.0705 16.8835 29.2361 16.718 29.4404 16.7178ZM31.1699 16.7178C31.3745 16.7178 31.5408 16.8834 31.541 17.0879C31.541 17.2926 31.3746 17.459 31.1699 17.459C30.9654 17.4588 30.7998 17.2924 30.7998 17.0879C30.8 16.8835 30.9655 16.718 31.1699 16.7178ZM32.8994 16.7178C33.104 16.7178 33.2703 16.8834 33.2705 17.0879C33.2705 17.2926 33.1041 17.459 32.8994 17.459C32.6949 17.4589 32.5293 17.2925 32.5293 17.0879C32.5295 16.8835 32.695 16.7179 32.8994 16.7178ZM34.6289 16.7178C34.8334 16.7178 34.9998 16.8834 35 17.0879C35 17.2926 34.8336 17.459 34.6289 17.459C34.4243 17.4589 34.2588 17.2925 34.2588 17.0879C34.259 16.8835 34.4244 16.7179 34.6289 16.7178ZM36.3584 16.7178C36.5629 16.7178 36.7293 16.8834 36.7295 17.0879C36.7295 17.2926 36.5631 17.459 36.3584 17.459C36.1538 17.4589 35.9883 17.2925 35.9883 17.0879C35.9885 16.8834 36.1539 16.7178 36.3584 16.7178ZM38.0879 16.7178C38.2924 16.7178 38.4578 16.8834 38.458 17.0879C38.458 17.2926 38.2926 17.459 38.0879 17.459C37.8832 17.459 37.7178 17.2926 37.7178 17.0879C37.718 16.8834 37.8834 16.7178 38.0879 16.7178ZM39.8174 16.7178C40.0219 16.7178 40.1873 16.8834 40.1875 17.0879C40.1875 17.2925 40.022 17.4589 39.8174 17.459C39.6127 17.459 39.4463 17.2926 39.4463 17.0879C39.4465 16.8834 39.6128 16.7178 39.8174 16.7178ZM24.2529 14.9883C24.4573 14.9884 24.6228 15.1541 24.623 15.3584C24.623 15.563 24.4575 15.7293 24.2529 15.7295C24.0483 15.7295 23.8818 15.5631 23.8818 15.3584C23.8821 15.1539 24.0484 14.9883 24.2529 14.9883ZM25.9824 14.9883C26.1868 14.9885 26.3523 15.1541 26.3525 15.3584C26.3525 15.5629 26.1869 15.7293 25.9824 15.7295C25.7778 15.7295 25.6113 15.5631 25.6113 15.3584C25.6116 15.1539 25.7779 14.9883 25.9824 14.9883ZM27.7119 14.9883C27.9162 14.9885 28.0818 15.1541 28.082 15.3584C28.082 15.5629 27.9164 15.7292 27.7119 15.7295C27.5072 15.7295 27.3408 15.5631 27.3408 15.3584C27.3411 15.1539 27.5074 14.9883 27.7119 14.9883ZM29.4404 14.9883C29.6449 14.9883 29.8113 15.1539 29.8115 15.3584C29.8115 15.5631 29.6451 15.7295 29.4404 15.7295C29.236 15.7293 29.0703 15.5629 29.0703 15.3584C29.0706 15.1541 29.2361 14.9885 29.4404 14.9883ZM31.1699 14.9883C31.3744 14.9883 31.5408 15.1539 31.541 15.3584C31.541 15.5631 31.3746 15.7295 31.1699 15.7295C30.9654 15.7293 30.7998 15.563 30.7998 15.3584C30.8001 15.1541 30.9656 14.9885 31.1699 14.9883ZM32.8994 14.9883C33.1039 14.9883 33.2703 15.1539 33.2705 15.3584C33.2705 15.5631 33.1041 15.7295 32.8994 15.7295C32.6949 15.7294 32.5293 15.563 32.5293 15.3584C32.5296 15.154 32.695 14.9884 32.8994 14.9883ZM34.6289 14.9883C34.8334 14.9883 34.9997 15.1539 35 15.3584C35 15.5631 34.8336 15.7295 34.6289 15.7295C34.4243 15.7294 34.2588 15.563 34.2588 15.3584C34.259 15.154 34.4245 14.9884 34.6289 14.9883ZM36.3584 14.9883C36.5629 14.9883 36.7292 15.1539 36.7295 15.3584C36.7295 15.5631 36.5631 15.7295 36.3584 15.7295C36.1538 15.7294 35.9883 15.563 35.9883 15.3584C35.9885 15.154 36.1539 14.9883 36.3584 14.9883ZM38.0879 14.9883C38.2924 14.9883 38.4577 15.1539 38.458 15.3584C38.458 15.5631 38.2926 15.7295 38.0879 15.7295C37.8832 15.7295 37.7178 15.5631 37.7178 15.3584C37.718 15.1539 37.8834 14.9883 38.0879 14.9883ZM39.8174 14.9883C40.0219 14.9883 40.1872 15.154 40.1875 15.3584C40.1875 15.563 40.022 15.7294 39.8174 15.7295C39.6127 15.7295 39.4463 15.5631 39.4463 15.3584C39.4465 15.1539 39.6129 14.9883 39.8174 14.9883ZM24.2529 13.2588C24.4575 13.259 24.623 13.4253 24.623 13.6299C24.6228 13.8343 24.4573 13.9998 24.2529 14C24.0484 14 23.8821 13.8344 23.8818 13.6299C23.8818 13.4252 24.0483 13.2588 24.2529 13.2588ZM25.9824 13.2588C26.1869 13.259 26.3525 13.4253 26.3525 13.6299C26.3523 13.8342 26.1868 13.9998 25.9824 14C25.7779 14 25.6116 13.8344 25.6113 13.6299C25.6113 13.4252 25.7778 13.2588 25.9824 13.2588ZM27.7119 13.2588C27.9164 13.259 28.082 13.4254 28.082 13.6299C28.0818 13.8342 27.9162 13.9997 27.7119 14C27.5074 14 27.341 13.8344 27.3408 13.6299C27.3408 13.4252 27.5072 13.2588 27.7119 13.2588ZM29.4404 13.2588C29.6451 13.2588 29.8115 13.4252 29.8115 13.6299C29.8113 13.8344 29.645 14 29.4404 14C29.2361 13.9998 29.0705 13.8342 29.0703 13.6299C29.0703 13.4254 29.236 13.259 29.4404 13.2588ZM31.1699 13.2588C31.3746 13.2588 31.541 13.4252 31.541 13.6299C31.5408 13.8344 31.3745 14 31.1699 14C30.9655 13.9998 30.8 13.8343 30.7998 13.6299C30.7998 13.4253 30.9654 13.259 31.1699 13.2588ZM32.8994 13.2588C33.1041 13.2588 33.2705 13.4252 33.2705 13.6299C33.2703 13.8344 33.1039 14 32.8994 14C32.695 13.9999 32.5295 13.8343 32.5293 13.6299C32.5293 13.4253 32.6949 13.2589 32.8994 13.2588ZM34.6289 13.2588C34.8336 13.2588 35 13.4252 35 13.6299C34.9998 13.8344 34.8334 14 34.6289 14C34.4244 13.9999 34.259 13.8343 34.2588 13.6299C34.2588 13.4253 34.4243 13.2589 34.6289 13.2588ZM36.3584 13.2588C36.5631 13.2588 36.7295 13.4252 36.7295 13.6299C36.7293 13.8344 36.5629 14 36.3584 14C36.1539 14 35.9885 13.8343 35.9883 13.6299C35.9883 13.4252 36.1538 13.2588 36.3584 13.2588ZM38.0879 13.2588C38.2926 13.2588 38.458 13.4252 38.458 13.6299C38.4578 13.8344 38.2924 14 38.0879 14C37.8834 14 37.718 13.8344 37.7178 13.6299C37.7178 13.4252 37.8832 13.2588 38.0879 13.2588ZM39.8174 13.2588C40.022 13.2588 40.1875 13.4252 40.1875 13.6299C40.1873 13.8343 40.0219 14 39.8174 14C39.6129 14 39.4465 13.8344 39.4463 13.6299C39.4463 13.4252 39.6127 13.2588 39.8174 13.2588ZM25.9824 11.5293C26.1869 11.5295 26.3525 11.6959 26.3525 11.9004C26.3524 12.1048 26.1868 12.2703 25.9824 12.2705C25.7779 12.2705 25.6115 12.1049 25.6113 11.9004C25.6113 11.6957 25.7778 11.5293 25.9824 11.5293ZM27.7119 11.5293C27.9164 11.5296 28.082 11.6959 28.082 11.9004C28.0819 12.1047 27.9163 12.2703 27.7119 12.2705C27.5074 12.2705 27.341 12.1049 27.3408 11.9004C27.3408 11.6957 27.5072 11.5293 27.7119 11.5293ZM29.4404 11.5293C29.6451 11.5293 29.8115 11.6957 29.8115 11.9004C29.8113 12.1049 29.645 12.2705 29.4404 12.2705C29.2361 12.2703 29.0705 12.1048 29.0703 11.9004C29.0703 11.6959 29.236 11.5295 29.4404 11.5293ZM31.1699 11.5293C31.3746 11.5293 31.541 11.6957 31.541 11.9004C31.5408 12.1049 31.3745 12.2705 31.1699 12.2705C30.9655 12.2703 30.8 12.1048 30.7998 11.9004C30.7998 11.6958 30.9654 11.5295 31.1699 11.5293ZM32.8994 11.5293C33.1041 11.5293 33.2705 11.6957 33.2705 11.9004C33.2703 12.1049 33.104 12.2705 32.8994 12.2705C32.695 12.2704 32.5295 12.1048 32.5293 11.9004C32.5293 11.6958 32.6949 11.5294 32.8994 11.5293ZM34.6289 11.5293C34.8336 11.5293 35 11.6957 35 11.9004C34.9998 12.1049 34.8335 12.2705 34.6289 12.2705C34.4244 12.2704 34.259 12.1049 34.2588 11.9004C34.2588 11.6958 34.4243 11.5294 34.6289 11.5293ZM36.3584 11.5293C36.5631 11.5293 36.7295 11.6957 36.7295 11.9004C36.7293 12.1049 36.563 12.2705 36.3584 12.2705C36.1539 12.2705 35.9885 12.1049 35.9883 11.9004C35.9883 11.6957 36.1538 11.5293 36.3584 11.5293ZM38.0879 11.5293C38.2926 11.5293 38.458 11.6957 38.458 11.9004C38.4578 12.1049 38.2924 12.2705 38.0879 12.2705C37.8833 12.2705 37.718 12.1049 37.7178 11.9004C37.7178 11.6957 37.8832 11.5293 38.0879 11.5293ZM25.9824 9.7998C26.1869 9.80002 26.3525 9.96636 26.3525 10.1709C26.3524 10.3753 26.1868 10.5408 25.9824 10.541C25.7778 10.541 25.6115 10.3755 25.6113 10.1709C25.6113 9.96623 25.7778 9.7998 25.9824 9.7998ZM27.7119 9.7998C27.9164 9.80006 28.082 9.96639 28.082 10.1709C28.0819 10.3753 27.9163 10.5408 27.7119 10.541C27.5073 10.541 27.341 10.3755 27.3408 10.1709C27.3408 9.96623 27.5072 9.7998 27.7119 9.7998ZM29.4404 9.7998C29.6451 9.7998 29.8115 9.96623 29.8115 10.1709C29.8114 10.3755 29.645 10.541 29.4404 10.541C29.236 10.5408 29.0704 10.3753 29.0703 10.1709C29.0703 9.96637 29.236 9.80003 29.4404 9.7998ZM31.1699 9.7998C31.3746 9.7998 31.541 9.96623 31.541 10.1709C31.5409 10.3755 31.3745 10.541 31.1699 10.541C30.9655 10.5408 30.7999 10.3753 30.7998 10.1709C30.7998 9.96634 30.9654 9.79998 31.1699 9.7998ZM32.8994 9.7998C33.1041 9.7998 33.2705 9.96623 33.2705 10.1709C33.2704 10.3755 33.104 10.541 32.8994 10.541C32.6949 10.5409 32.5294 10.3754 32.5293 10.1709C32.5293 9.96631 32.6949 9.79994 32.8994 9.7998ZM34.6289 9.7998C34.8336 9.7998 35 9.96623 35 10.1709C34.9999 10.3755 34.8335 10.541 34.6289 10.541C34.4244 10.5409 34.2589 10.3754 34.2588 10.1709C34.2588 9.96628 34.4243 9.79989 34.6289 9.7998ZM36.3584 9.7998C36.5631 9.7998 36.7295 9.96623 36.7295 10.1709C36.7294 10.3755 36.563 10.541 36.3584 10.541C36.1539 10.541 35.9884 10.3754 35.9883 10.1709C35.9883 9.96626 36.1538 9.79985 36.3584 9.7998ZM38.0879 9.7998C38.2926 9.79981 38.458 9.96623 38.458 10.1709C38.4579 10.3755 38.2925 10.541 38.0879 10.541C37.8833 10.541 37.7179 10.3755 37.7178 10.1709C37.7178 9.96623 37.8832 9.7998 38.0879 9.7998ZM27.7119 8.07031C27.9164 8.07057 28.082 8.2369 28.082 8.44141C28.0819 8.64584 27.9163 8.81127 27.7119 8.81152C27.5073 8.81152 27.3409 8.646 27.3408 8.44141C27.3408 8.23674 27.5072 8.07031 27.7119 8.07031ZM29.4404 8.07031C29.6451 8.07031 29.8115 8.23674 29.8115 8.44141C29.8114 8.646 29.645 8.81152 29.4404 8.81152C29.236 8.8113 29.0704 8.64586 29.0703 8.44141C29.0703 8.23687 29.236 8.07054 29.4404 8.07031ZM31.1699 8.07031C31.3746 8.07031 31.541 8.23674 31.541 8.44141C31.5409 8.646 31.3745 8.81152 31.1699 8.81152C30.9655 8.81134 30.7999 8.64589 30.7998 8.44141C30.7998 8.23685 30.9654 8.07049 31.1699 8.07031ZM32.8994 8.07031C33.1041 8.07031 33.2705 8.23674 33.2705 8.44141C33.2704 8.646 33.104 8.81152 32.8994 8.81152C32.6949 8.81139 32.5294 8.64592 32.5293 8.44141C32.5293 8.23682 32.6949 8.07045 32.8994 8.07031ZM34.6289 8.07031C34.8336 8.07031 35 8.23674 35 8.44141C34.9999 8.646 34.8335 8.81152 34.6289 8.81152C34.4244 8.81143 34.2589 8.64595 34.2588 8.44141C34.2588 8.23679 34.4243 8.0704 34.6289 8.07031ZM36.3584 8.07031C36.5631 8.07031 36.7295 8.23674 36.7295 8.44141C36.7294 8.646 36.563 8.81152 36.3584 8.81152C36.1538 8.81148 35.9884 8.64597 35.9883 8.44141C35.9883 8.23676 36.1538 8.07036 36.3584 8.07031ZM29.4404 6.34082C29.6451 6.34082 29.8115 6.50724 29.8115 6.71191C29.8115 6.91655 29.6451 7.08203 29.4404 7.08203C29.236 7.08181 29.0704 6.91641 29.0703 6.71191C29.0703 6.50738 29.236 6.34104 29.4404 6.34082ZM31.1699 6.34082C31.3746 6.34082 31.541 6.50724 31.541 6.71191C31.541 6.91655 31.3746 7.08203 31.1699 7.08203C30.9654 7.08185 30.7998 6.91644 30.7998 6.71191C30.7998 6.50735 30.9654 6.341 31.1699 6.34082ZM32.8994 6.34082C33.1041 6.34082 33.2705 6.50724 33.2705 6.71191C33.2705 6.91655 33.1041 7.08203 32.8994 7.08203C32.6949 7.0819 32.5293 6.91646 32.5293 6.71191C32.5293 6.50733 32.6949 6.34095 32.8994 6.34082ZM34.6289 6.34082C34.8336 6.34082 35 6.50724 35 6.71191C35 6.91655 34.8335 7.08203 34.6289 7.08203C34.4243 7.08194 34.2588 6.91649 34.2588 6.71191C34.2588 6.5073 34.4243 6.34091 34.6289 6.34082ZM31.1699 4.6123C31.3746 4.6123 31.541 4.77775 31.541 4.98242C31.541 5.18709 31.3746 5.35254 31.1699 5.35254C30.9654 5.35236 30.7998 5.18698 30.7998 4.98242C30.7998 4.77786 30.9654 4.61248 31.1699 4.6123ZM32.8994 4.6123C33.1041 4.6123 33.2705 4.77775 33.2705 4.98242C33.2705 5.18709 33.1041 5.35254 32.8994 5.35254C32.6949 5.3524 32.5293 5.18701 32.5293 4.98242C32.5293 4.77784 32.6949 4.61244 32.8994 4.6123Z" fill="white"/>
  </g>
</svg>
